<svg xmlns="http://www.w3.org/2000/svg" xmlns:v="https://svgstorm.com"
viewBox = "0 0 1024 1024"
width="1024"
height="1024">
<g fill="None" fill-opacity="0.0" stroke="#050C0A" stroke-opacity="1.00" stroke-width="0.3"><path d="
M 0.00 1024.00 
L 1024.00 1024.00
L 1024.00 0.00
L 0.00 0.00
L 0.00 1024.00
M 569.00 159.00 
C 569.18 182.63 562.67 213.03 570.92 234.08 C 579.18 255.12 603.03 257.76 616.75 274.25 C 630.47 290.74 634.69 311.14 649.25 326.75 C 663.82 342.35 688.07 348.18 707.00 355.00
C 702.58 386.03 673.53 398.30 644.00 400.00 C 614.47 401.70 576.74 387.09 548.92 402.92 C 521.10 418.75 535.25 458.41 550.00 479.00
C 514.71 460.05 503.64 397.78 546.70 380.70 C 589.75 363.61 642.40 395.54 683.00 368.00
C 659.35 358.16 635.84 344.56 623.70 320.31 C 611.55 296.05 599.01 274.83 572.32 263.68 C 545.63 252.53 542.04 213.10 549.00 189.00
C 535.98 197.99 524.34 207.41 517.08 222.08 C 509.81 236.75 500.37 252.80 499.22 270.22 C 498.07 287.65 479.80 292.66 468.75 305.75 C 457.71 318.85 450.06 330.49 443.68 346.68 C 437.30 362.86 433.04 381.54 432.67 399.67 C 432.30 417.80 434.87 439.68 440.32 456.68 C 445.78 473.67 451.69 487.54 460.00 503.00
C 444.59 489.06 433.40 476.50 423.70 458.31 C 413.99 440.11 407.75 417.42 406.07 396.92 C 404.38 376.42 408.43 351.34 415.98 331.98 C 423.52 312.61 434.38 297.06 447.25 281.25 C 460.12 265.44 478.13 256.70 485.32 238.32 C 492.52 219.95 503.44 203.92 517.75 189.75 C 532.06 175.58 550.25 164.98 569.00 159.00
M 578.00 338.00 
C 576.26 333.76 576.68 327.00 572.30 324.70 C 567.92 322.40 562.15 320.76 565.00 315.00
C 568.94 315.71 572.10 313.51 576.00 314.00
C 576.03 310.48 581.73 300.73 584.90 306.10 C 588.07 311.47 585.83 318.03 593.69 319.31 C 601.56 320.58 596.44 329.08 589.98 327.98 C 583.51 326.87 585.83 340.51 578.00 338.00
M 489.00 570.00 
C 480.43 578.74 468.03 593.94 459.08 581.92 C 450.14 569.89 441.13 563.82 431.75 553.25 C 422.38 542.68 413.47 535.55 402.75 526.25 C 392.04 516.95 381.44 510.22 368.92 503.08 C 356.40 495.94 342.55 491.09 327.99 488.01 C 313.44 484.93 292.78 485.51 278.98 490.98 C 265.17 496.44 254.54 502.36 243.75 512.75 C 232.96 523.14 227.45 532.59 221.08 546.08 C 214.70 559.56 212.84 577.84 213.98 593.02 C 215.11 608.21 219.35 624.53 226.75 637.25 C 234.16 649.96 239.89 658.92 251.25 668.75 C 262.61 678.59 272.95 683.74 287.02 688.98 C 301.10 694.21 320.73 696.08 336.07 694.07 C 351.42 692.07 367.27 687.90 380.69 681.69 C 394.12 675.49 405.26 669.74 417.08 662.08 C 428.90 654.42 438.18 646.65 448.75 637.75 C 459.33 628.85 469.21 620.26 478.75 610.75 C 488.28 601.23 496.28 591.25 505.75 581.75 C 515.23 572.26 523.45 562.38 532.75 552.75 C 542.05 543.12 551.55 533.69 561.25 524.25 C 570.95 514.80 580.62 506.89 591.25 498.25 C 601.87 489.61 612.54 482.93 624.70 475.70 C 636.85 468.46 650.22 462.91 664.02 458.02 C 677.83 453.14 693.95 449.90 709.00 449.00 C 724.05 448.10 743.17 449.79 757.02 454.98 C 770.88 460.16 782.53 465.26 794.08 473.92 C 805.64 482.58 814.27 491.08 822.75 502.25 C 831.23 513.42 837.17 525.36 842.31 538.69 C 847.44 552.03 850.96 570.18 851.60 584.74 C 852.23 599.30 849.18 617.10 845.02 631.02 C 840.87 644.95 834.70 657.19 826.70 668.70 C 818.69 680.21 810.06 688.27 799.25 697.25 C 788.44 706.22 776.22 712.85 762.77 717.77 C 749.32 722.69 728.83 725.95 714.00 725.00 C 699.17 724.05 683.50 720.80 669.93 715.07 C 656.35 709.35 646.31 702.10 636.00 692.00
C 685.19 712.82 746.42 705.79 783.75 664.75 C 821.08 623.71 824.25 561.79 787.75 519.25 C 751.25 476.70 683.21 483.52 641.77 511.77 C 600.34 540.02 570.17 570.03 534.75 606.75 C 499.34 643.47 468.40 672.04 425.30 698.30 C 382.20 724.57 314.19 740.47 265.78 719.22 C 217.36 697.98 184.10 660.12 176.07 607.93 C 168.04 555.73 192.76 505.68 234.70 472.70 C 276.63 439.71 343.37 443.62 386.23 470.77 C 429.09 497.92 460.00 529.14 489.00 570.00
M 385.00 748.00 
C 404.03 756.05 424.38 760.26 445.00 763.00 C 465.63 765.73 491.91 763.82 511.22 758.22 C 530.54 752.62 546.54 745.50 561.75 732.75 C 576.97 720.01 580.69 693.19 558.98 687.03 C 537.26 680.86 512.15 681.65 490.00 682.00
C 520.00 654.28 565.72 648.05 600.23 671.77 C 634.74 695.49 631.74 742.69 600.75 768.75 C 569.76 794.82 524.89 804.10 485.00 799.00 C 445.11 793.90 412.12 777.27 385.00 748.00 Z"/>
</g>
<g fill="None" fill-opacity="0.0" stroke="#EEBF69" stroke-opacity="1.00" stroke-width="0.3"><path d="
M 569.00 159.00 
C 550.25 164.98 532.06 175.58 517.75 189.75 C 503.44 203.92 492.52 219.95 485.32 238.32 C 478.13 256.70 460.12 265.44 447.25 281.25 C 434.38 297.06 423.52 312.61 415.98 331.98 C 408.43 351.34 404.38 376.42 406.07 396.92 C 407.75 417.42 413.99 440.11 423.70 458.31 C 433.40 476.50 444.59 489.06 460.00 503.00
C 451.69 487.54 445.78 473.67 440.32 456.68 C 434.87 439.68 432.30 417.80 432.67 399.67 C 433.04 381.54 437.30 362.86 443.68 346.68 C 450.06 330.49 457.71 318.85 468.75 305.75 C 479.80 292.66 498.07 287.65 499.22 270.22 C 500.37 252.80 509.81 236.75 517.08 222.08 C 524.34 207.41 535.98 197.99 549.00 189.00
C 542.04 213.10 545.63 252.53 572.32 263.68 C 599.01 274.83 611.55 296.05 623.70 320.31 C 635.84 344.56 659.35 358.16 683.00 368.00
C 642.40 395.54 589.75 363.61 546.70 380.70 C 503.64 397.78 514.71 460.05 550.00 479.00
C 535.25 458.41 521.10 418.75 548.92 402.92 C 576.74 387.09 614.47 401.70 644.00 400.00 C 673.53 398.30 702.58 386.03 707.00 355.00
C 688.07 348.18 663.82 342.35 649.25 326.75 C 634.69 311.14 630.47 290.74 616.75 274.25 C 603.03 257.76 579.18 255.12 570.92 234.08 C 562.67 213.03 569.18 182.63 569.00 159.00 Z"/>
</g>
<g fill="None" fill-opacity="0.0" stroke="#EEBF69" stroke-opacity="1.00" stroke-width="0.3"><path d="
M 578.00 338.00 
C 585.83 340.51 583.51 326.87 589.98 327.98 C 596.44 329.08 601.56 320.58 593.69 319.31 C 585.83 318.03 588.07 311.47 584.90 306.10 C 581.73 300.73 576.03 310.48 576.00 314.00
C 572.10 313.51 568.94 315.71 565.00 315.00
C 562.15 320.76 567.92 322.40 572.30 324.70 C 576.68 327.00 576.26 333.76 578.00 338.00 Z"/>
</g>
<g fill="None" fill-opacity="0.0" stroke="#EEBF69" stroke-opacity="1.00" stroke-width="0.3"><path d="
M 489.00 570.00 
C 460.00 529.14 429.09 497.92 386.23 470.77 C 343.37 443.62 276.63 439.71 234.70 472.70 C 192.76 505.68 168.04 555.73 176.07 607.93 C 184.10 660.12 217.36 697.98 265.78 719.22 C 314.19 740.47 382.20 724.57 425.30 698.30 C 468.40 672.04 499.34 643.47 534.75 606.75 C 570.17 570.03 600.34 540.02 641.77 511.77 C 683.21 483.52 751.25 476.70 787.75 519.25 C 824.25 561.79 821.08 623.71 783.75 664.75 C 746.42 705.79 685.19 712.82 636.00 692.00
C 646.31 702.10 656.35 709.35 669.93 715.07 C 683.50 720.80 699.17 724.05 714.00 725.00 C 728.83 725.95 749.32 722.69 762.77 717.77 C 776.22 712.85 788.44 706.22 799.25 697.25 C 810.06 688.27 818.69 680.21 826.70 668.70 C 834.70 657.19 840.87 644.95 845.02 631.02 C 849.18 617.10 852.23 599.30 851.60 584.74 C 850.96 570.18 847.44 552.03 842.31 538.69 C 837.17 525.36 831.23 513.42 822.75 502.25 C 814.27 491.08 805.64 482.58 794.08 473.92 C 782.53 465.26 770.88 460.16 757.02 454.98 C 743.17 449.79 724.05 448.10 709.00 449.00 C 693.95 449.90 677.83 453.14 664.02 458.02 C 650.22 462.91 636.85 468.46 624.70 475.70 C 612.54 482.93 601.87 489.61 591.25 498.25 C 580.62 506.89 570.95 514.80 561.25 524.25 C 551.55 533.69 542.05 543.12 532.75 552.75 C 523.45 562.38 515.23 572.26 505.75 581.75 C 496.28 591.25 488.28 601.23 478.75 610.75 C 469.21 620.26 459.33 628.85 448.75 637.75 C 438.18 646.65 428.90 654.42 417.08 662.08 C 405.26 669.74 394.12 675.49 380.69 681.69 C 367.27 687.90 351.42 692.07 336.07 694.07 C 320.73 696.08 301.10 694.21 287.02 688.98 C 272.95 683.74 262.61 678.59 251.25 668.75 C 239.89 658.92 234.16 649.96 226.75 637.25 C 219.35 624.53 215.11 608.21 213.98 593.02 C 212.84 577.84 214.70 559.56 221.08 546.08 C 227.45 532.59 232.96 523.14 243.75 512.75 C 254.54 502.36 265.17 496.44 278.98 490.98 C 292.78 485.51 313.44 484.93 327.99 488.01 C 342.55 491.09 356.40 495.94 368.92 503.08 C 381.44 510.22 392.04 516.95 402.75 526.25 C 413.47 535.55 422.38 542.68 431.75 553.25 C 441.13 563.82 450.14 569.89 459.08 581.92 C 468.03 593.94 480.43 578.74 489.00 570.00 Z"/>
</g>
<g fill="None" fill-opacity="0.0" stroke="#EEBF69" stroke-opacity="1.00" stroke-width="0.3"><path d="
M 385.00 748.00 
C 412.12 777.27 445.11 793.90 485.00 799.00 C 524.89 804.10 569.76 794.82 600.75 768.75 C 631.74 742.69 634.74 695.49 600.23 671.77 C 565.72 648.05 520.00 654.28 490.00 682.00
C 512.15 681.65 537.26 680.86 558.98 687.03 C 580.69 693.19 576.97 720.01 561.75 732.75 C 546.54 745.50 530.54 752.62 511.22 758.22 C 491.91 763.82 465.63 765.73 445.00 763.00 C 424.38 760.26 404.03 756.05 385.00 748.00 Z"/>
</g>

<g fill="#EEBF69" fill-opacity="1.00" stroke="None">
<path d="
M 569.00 159.00 
C 550.25 164.98 532.06 175.58 517.75 189.75 C 503.44 203.92 492.52 219.95 485.32 238.32 C 478.13 256.70 460.12 265.44 447.25 281.25 C 434.38 297.06 423.52 312.61 415.98 331.98 C 408.43 351.34 404.38 376.42 406.07 396.92 C 407.75 417.42 413.99 440.11 423.70 458.31 C 433.40 476.50 444.59 489.06 460.00 503.00
C 451.69 487.54 445.78 473.67 440.32 456.68 C 434.87 439.68 432.30 417.80 432.67 399.67 C 433.04 381.54 437.30 362.86 443.68 346.68 C 450.06 330.49 457.71 318.85 468.75 305.75 C 479.80 292.66 498.07 287.65 499.22 270.22 C 500.37 252.80 509.81 236.75 517.08 222.08 C 524.34 207.41 535.98 197.99 549.00 189.00
C 542.04 213.10 545.63 252.53 572.32 263.68 C 599.01 274.83 611.55 296.05 623.70 320.31 C 635.84 344.56 659.35 358.16 683.00 368.00
C 642.40 395.54 589.75 363.61 546.70 380.70 C 503.64 397.78 514.71 460.05 550.00 479.00
C 535.25 458.41 521.10 418.75 548.92 402.92 C 576.74 387.09 614.47 401.70 644.00 400.00 C 673.53 398.30 702.58 386.03 707.00 355.00
C 688.07 348.18 663.82 342.35 649.25 326.75 C 634.69 311.14 630.47 290.74 616.75 274.25 C 603.03 257.76 579.18 255.12 570.92 234.08 C 562.67 213.03 569.18 182.63 569.00 159.00 Z"/>
</g>
<g fill="#EEBF69" fill-opacity="1.00" stroke="None">
<path d="
M 578.00 338.00 
C 585.83 340.51 583.51 326.87 589.98 327.98 C 596.44 329.08 601.56 320.58 593.69 319.31 C 585.83 318.03 588.07 311.47 584.90 306.10 C 581.73 300.73 576.03 310.48 576.00 314.00
C 572.10 313.51 568.94 315.71 565.00 315.00
C 562.15 320.76 567.92 322.40 572.30 324.70 C 576.68 327.00 576.26 333.76 578.00 338.00 Z"/>
</g>
<g fill="#EEBF69" fill-opacity="1.00" stroke="None">
<path d="
M 489.00 570.00 
C 460.00 529.14 429.09 497.92 386.23 470.77 C 343.37 443.62 276.63 439.71 234.70 472.70 C 192.76 505.68 168.04 555.73 176.07 607.93 C 184.10 660.12 217.36 697.98 265.78 719.22 C 314.19 740.47 382.20 724.57 425.30 698.30 C 468.40 672.04 499.34 643.47 534.75 606.75 C 570.17 570.03 600.34 540.02 641.77 511.77 C 683.21 483.52 751.25 476.70 787.75 519.25 C 824.25 561.79 821.08 623.71 783.75 664.75 C 746.42 705.79 685.19 712.82 636.00 692.00
C 646.31 702.10 656.35 709.35 669.93 715.07 C 683.50 720.80 699.17 724.05 714.00 725.00 C 728.83 725.95 749.32 722.69 762.77 717.77 C 776.22 712.85 788.44 706.22 799.25 697.25 C 810.06 688.27 818.69 680.21 826.70 668.70 C 834.70 657.19 840.87 644.95 845.02 631.02 C 849.18 617.10 852.23 599.30 851.60 584.74 C 850.96 570.18 847.44 552.03 842.31 538.69 C 837.17 525.36 831.23 513.42 822.75 502.25 C 814.27 491.08 805.64 482.58 794.08 473.92 C 782.53 465.26 770.88 460.16 757.02 454.98 C 743.17 449.79 724.05 448.10 709.00 449.00 C 693.95 449.90 677.83 453.14 664.02 458.02 C 650.22 462.91 636.85 468.46 624.70 475.70 C 612.54 482.93 601.87 489.61 591.25 498.25 C 580.62 506.89 570.95 514.80 561.25 524.25 C 551.55 533.69 542.05 543.12 532.75 552.75 C 523.45 562.38 515.23 572.26 505.75 581.75 C 496.28 591.25 488.28 601.23 478.75 610.75 C 469.21 620.26 459.33 628.85 448.75 637.75 C 438.18 646.65 428.90 654.42 417.08 662.08 C 405.26 669.74 394.12 675.49 380.69 681.69 C 367.27 687.90 351.42 692.07 336.07 694.07 C 320.73 696.08 301.10 694.21 287.02 688.98 C 272.95 683.74 262.61 678.59 251.25 668.75 C 239.89 658.92 234.16 649.96 226.75 637.25 C 219.35 624.53 215.11 608.21 213.98 593.02 C 212.84 577.84 214.70 559.56 221.08 546.08 C 227.45 532.59 232.96 523.14 243.75 512.75 C 254.54 502.36 265.17 496.44 278.98 490.98 C 292.78 485.51 313.44 484.93 327.99 488.01 C 342.55 491.09 356.40 495.94 368.92 503.08 C 381.44 510.22 392.04 516.95 402.75 526.25 C 413.47 535.55 422.38 542.68 431.75 553.25 C 441.13 563.82 450.14 569.89 459.08 581.92 C 468.03 593.94 480.43 578.74 489.00 570.00 Z"/>
</g>
<g fill="#EEBF69" fill-opacity="1.00" stroke="None">
<path d="
M 385.00 748.00 
C 412.12 777.27 445.11 793.90 485.00 799.00 C 524.89 804.10 569.76 794.82 600.75 768.75 C 631.74 742.69 634.74 695.49 600.23 671.77 C 565.72 648.05 520.00 654.28 490.00 682.00
C 512.15 681.65 537.26 680.86 558.98 687.03 C 580.69 693.19 576.97 720.01 561.75 732.75 C 546.54 745.50 530.54 752.62 511.22 758.22 C 491.91 763.82 465.63 765.73 445.00 763.00 C 424.38 760.26 404.03 756.05 385.00 748.00 Z"/>
</g>
</svg>